<svg xmlns="http://www.w3.org/2000/svg" width="37.556" height="37.556" viewBox="0 0 37.556 37.556">
  <path id="前面オブジェクトで型抜き_2" data-name="前面オブジェクトで型抜き 2" d="M-1467.444,37.556H-1485a10.011,10.011,0,0,1-10-10V10a10.011,10.011,0,0,1,10-10h17.556a10.011,10.011,0,0,1,10,10V27.556A10.011,10.011,0,0,1-1467.444,37.556Zm-12.945-28.714a5.793,5.793,0,0,0-4.211,1.6,5.793,5.793,0,0,0-1.6,4.211v8.213a5.782,5.782,0,0,0,1.682,4.286,5.859,5.859,0,0,0,4.167,1.563h8.173a5.918,5.918,0,0,0,4.207-1.563,5.718,5.718,0,0,0,1.642-4.246V14.651a5.731,5.731,0,0,0-1.6-4.166,5.669,5.669,0,0,0-4.207-1.642Zm8.213,18.028h-8.173a4.157,4.157,0,0,1-2.925-1.042,4.022,4.022,0,0,1-1.081-2.964V14.651a3.969,3.969,0,0,1,1.081-2.925,4.079,4.079,0,0,1,2.925-1.04h8.253a3.971,3.971,0,0,1,2.924,1.081,4.16,4.16,0,0,1,1.081,2.884V22.9a3.9,3.9,0,0,1-1.161,2.924A4.155,4.155,0,0,1-1472.175,26.87Zm-4.087-13.262a5.134,5.134,0,0,0-5.127,5.129,5.1,5.1,0,0,0,1.5,3.63,5.1,5.1,0,0,0,3.63,1.5,5.134,5.134,0,0,0,5.128-5.127,5.089,5.089,0,0,0-1.512-3.617A5.087,5.087,0,0,0-1476.262,13.609Zm5.328-1.282a1.163,1.163,0,0,0-1.162,1.162,1.163,1.163,0,0,0,1.162,1.162,1.163,1.163,0,0,0,1.162-1.162A1.163,1.163,0,0,0-1470.934,12.327Zm-5.328,9.7a3.289,3.289,0,0,1-3.285-3.285,3.289,3.289,0,0,1,3.285-3.286,3.289,3.289,0,0,1,3.285,3.286A3.289,3.289,0,0,1-1476.262,22.023Z" transform="translate(1495)" fill="#fff"/>
</svg>
