<svg xmlns="http://www.w3.org/2000/svg" width="37.556" height="37.557" viewBox="0 0 37.556 37.557">
  <path id="前面オブジェクトで型抜き_4" data-name="前面オブジェクトで型抜き 4" d="M-1475.194,37.557H-1485a10.011,10.011,0,0,1-10-10V10a10.011,10.011,0,0,1,10-10h17.556a10.011,10.011,0,0,1,10,10V27.556a10.011,10.011,0,0,1-10,10h-2.814V25.741h3.681l.7-4.567h-4.382V18.211a2.555,2.555,0,0,1,.552-1.7,2.543,2.543,0,0,1,2.023-.765h1.992V11.856a24.6,24.6,0,0,0-3.536-.308,5.959,5.959,0,0,0-4.336,1.588,6.274,6.274,0,0,0-1.63,4.558v3.48h-4.012v4.567h4.012V37.556Z" transform="translate(1495)" fill="#fff"/>
</svg>
