<svg xmlns="http://www.w3.org/2000/svg" width="37.556" height="37.556" viewBox="0 0 37.556 37.556">
  <path id="前面オブジェクトで型抜き_3" data-name="前面オブジェクトで型抜き 3" d="M-1467.444,37.556H-1485a10.011,10.011,0,0,1-10-10V10a10.011,10.011,0,0,1,10-10h17.556a10.011,10.011,0,0,1,10,10V27.556A10.011,10.011,0,0,1-1467.444,37.556Zm-18.442-12.188h0a11.033,11.033,0,0,0,6.16,1.882h.107a11.207,11.207,0,0,0,8.059-3.417,11.869,11.869,0,0,0,3.38-8.272V15.4c0-.178,0-.362-.009-.535a8.441,8.441,0,0,0,2.024-2.158,8.036,8.036,0,0,1-2.327.657,4.133,4.133,0,0,0,1.78-2.306,8.074,8.074,0,0,1-2.568,1.011,3.961,3.961,0,0,0-2.952-1.312A3.974,3.974,0,0,0-1475,11.89a4.24,4.24,0,0,0-1.275,3.028,3.882,3.882,0,0,0,.109.95,11.4,11.4,0,0,1-8.346-4.348,4.24,4.24,0,0,0,1.259,5.552,3.907,3.907,0,0,1-1.831-.517v.051a4.154,4.154,0,0,0,3.249,4.086,3.933,3.933,0,0,1-1.067.147,3.78,3.78,0,0,1-.765-.077,4.056,4.056,0,0,0,3.776,2.893,8.036,8.036,0,0,1-5.014,1.776h-.033A7.383,7.383,0,0,1-1485.886,25.368Z" transform="translate(1495)" fill="#fff"/>
</svg>
